<svg id="_Слой_4" data-name="Слой 4" xmlns="http://www.w3.org/2000/svg" viewBox="0 0 50 70"><defs><style>.cls-2{fill:none;stroke:#262626;stroke-miterlimit:10;stroke-width:3px}.cls-3{fill:#262626}.cls-3,.cls-4,.cls-5{stroke-width:0}.cls-4{fill:#fff}.cls-5{fill:#e8aa5f}</style></defs><path class="cls-5" d="m43.85 28-4.68 33.54C36.58 64.19 30 66.88 25 67c-5.52.16-11.13-2.06-14-5L5 28h38.85Z"/><path class="cls-4" d="M24.92 28.06v37.7c-5.52.16-11.17-1.23-14.03-4.17L6.21 28.06h18.71Z"/><path class="cls-3" d="M19.15 42.16c1.4-.18 1.53-1.34.62-2.28-1-1.06-2.82-1.06-4.04-.34-1.29.67-2.07 2.43-1.06 3.68.55.7 1.28.92 1.77.54.69-.62 1.53-1.29 2.44-1.52l.27-.08ZM29.53 42.37c-1.4-.18-1.53-1.34-.62-2.28 1.01-1.05 2.82-1.05 4.04-.34 1.29.67 2.06 2.44 1.05 3.68-.55.7-1.28.91-1.77.54-.69-.62-1.52-1.29-2.43-1.53l-.27-.08ZM24.87 45.63c-1.58 0-3.21-.51-4.53-1.36-1.64-1.16-1.58.79-1.7 2.23-.17 3.2.25 7.15 3.05 9.02 1.84 1.22 4.52 1.24 6.38.05 2.11-1.37 2.88-3.8 3.1-6.36.07-1.55.21-3.93-.42-5.14-.35-.38-.87-.02-1.24.19-1.33.85-2.95 1.36-4.53 1.36h-.1Z"/><path class="cls-4" d="M24.73 52.1c-5.14.33-5.04 3.46.14 3.67 5.19-.22 5.27-3.35.14-3.67h-.28ZM45.85 25.49H3.42c0-3 1.71-3 1.71-3h39.43c1.29 0 1.29 3 1.29 3ZM40.71 21.2H8.56c-.43-.43 0-3 4.71-4.71s9.43-3.86 10.72-5.14c.29-.29.58-.6.86-.93.95-1.09 1.71-2.27 1.71-2.93 0-.86.43-2.57.43-2.57s5.04 2.97 3.86 7.71c-.37 1.5-3.04 3.33-6 3.76-.42.06-.86.09-1.29.09-3.86 0-9.43.43-9.43.43s0 .86 1.29.86c.84 0 5.56.18 9.43-.05 2.03-.12 3.83-.36 4.71-.81 1.92-.96 4.29-3.43 4.29-3.43 2.14-.43 7.29 4.71 6.86 7.71Z"/><path class="cls-5" d="M24.85 16.4V9.31c1.25-1.3.85-.68 1.29-2.24.56-2.03.86-3.43.86-3.43s6 4.29 5.76 8.3c-.11 1.84-4.01 3.95-7.91 4.47Z"/><path class="cls-5" d="M41.57 21.2H24.85v-3.85c2.08-.14 3.87-.57 4.83-.89 2.88-.95 4.39-3.8 4.39-3.8 2.2-.47 7.93 5.22 7.49 8.54ZM46.28 25.49H24.85v-3.43h20.12c1.31 0 1.31 3.43 1.31 3.43Z"/><path class="cls-2" d="M44.57 26.78s-4.71 34.29-4.93 34.5c-7.93 7.93-21.86 8.14-29.79.21-.21-.21-5.14-34.72-5.14-34.72h39.86Z"/><path class="cls-2" d="M44.57 26.78s3.04.37 2.79-1.93c-.43-3.86-3-3.86-4.71-3.86-.43 0-1.29-7.71-9-8.57-.43-.05-.86-7.71-7.71-9.43 0 0 .43 8.57-10.72 10.72-3.85.74-7.84 2.84-8.51 6.82-.04.26-.27.44-.53.44-1.15 0-4.03.4-4.03 4.53 0 2.14 2.57 1.29 2.57 1.29"/><path style="fill:none;stroke:#262626;stroke-linecap:round;stroke-linejoin:round;stroke-width:2px" d="M3.85 21.63h41.57"/><path class="cls-3" d="M32.43 12.92s-3.72 3.57-11.22 3.78c-7.28.21-10.72.86-6.02 1.05s9.75.3 12.88-.62c3.64-1.07 5.57-3.43 5.57-3.43l-1.21-.78Z"/></svg>